<?xml version="1.0" standalone="no"?>
<!DOCTYPE svg PUBLIC "-//W3C//DTD SVG 20010904//EN"
 "http://www.w3.org/TR/2001/REC-SVG-20010904/DTD/svg10.dtd">
<svg version="1.0" xmlns="http://www.w3.org/2000/svg"
 width="250.000000pt" height="250.000000pt" viewBox="0 0 250.000000 250.000000"
 preserveAspectRatio="xMidYMid meet">

<g transform="translate(0.000000,250.000000) scale(0.100000,-0.100000)"
fill="#1b54dd" stroke="none">
<path d="M1055 2474 c-258 -46 -523 -186 -691 -365 -166 -177 -289 -415 -334
-644 -111 -574 206 -1149 755 -1370 294 -119 620 -120 920 -4 399 155 695 515
771 940 22 122 22 316 1 437 -45 247 -167 481 -346 659 -187 187 -444 317
-695 352 -105 15 -284 12 -381 -5z m-185 -814 c33 -18 51 -38 69 -72 23 -47
23 -51 22 -379 -1 -371 -3 -383 -72 -424 -31 -18 -52 -20 -254 -20 l-220 0 -3
463 -2 464 207 -4 c200 -3 210 -4 253 -28z m490 23 c0 -22 49 -355 53 -359 2
-3 7 21 11 53 3 32 13 115 22 186 l17 127 158 0 159 0 0 -465 0 -466 -107 3
-108 3 -4 255 -3 255 -34 -245 c-18 -135 -33 -251 -34 -258 0 -10 -19 -12 -77
-10 l-78 3 -36 255 -37 255 -1 -257 -1 -258 -105 0 -105 0 0 465 0 465 155 0
c85 0 155 -3 155 -7z m745 -458 l0 -460 -122 -3 -123 -3 0 466 0 466 123 -3
122 -3 0 -460z"/>
<path d="M660 1225 c0 -258 2 -305 14 -305 8 0 22 7 30 16 14 13 16 54 16 294
0 266 -1 280 -19 290 -11 5 -24 10 -30 10 -8 0 -11 -96 -11 -305z"/>
</g>
</svg>
